<mxfile host="app.diagrams.net" modified="2023-08-26T09:19:51.413Z" agent="Mozilla/5.0 (Windows NT 10.0; Win64; x64) AppleWebKit/537.36 (KHTML, like Gecko) Chrome/116.0.0.0 Safari/537.36" etag="QuS6flWx2MKip2O04tsd" version="21.6.9" type="github">
  <diagram name="Page-1" id="2o71oPubHWUXtBTM5wLO">
    <mxGraphModel dx="3268" dy="1564" grid="1" gridSize="10" guides="1" tooltips="1" connect="1" arrows="1" fold="1" page="0" pageScale="1" pageWidth="827" pageHeight="1169" math="0" shadow="0">
      <root>
        <mxCell id="0" />
        <mxCell id="1" parent="0" />
        <mxCell id="Nweyw8lJaDFySK4mVGA3-2" value="Customer" style="whiteSpace=wrap;html=1;align=center;" parent="1" vertex="1">
          <mxGeometry x="350" y="440" width="100" height="40" as="geometry" />
        </mxCell>
        <mxCell id="Nweyw8lJaDFySK4mVGA3-4" value="Makes" style="shape=rhombus;perimeter=rhombusPerimeter;whiteSpace=wrap;html=1;align=center;" parent="1" vertex="1">
          <mxGeometry x="580" y="430" width="120" height="60" as="geometry" />
        </mxCell>
        <mxCell id="Nweyw8lJaDFySK4mVGA3-5" value="Order" style="whiteSpace=wrap;html=1;align=center;" parent="1" vertex="1">
          <mxGeometry x="350" y="720" width="100" height="40" as="geometry" />
        </mxCell>
        <mxCell id="Nweyw8lJaDFySK4mVGA3-6" value="makes" style="shape=rhombus;perimeter=rhombusPerimeter;whiteSpace=wrap;html=1;align=center;" parent="1" vertex="1">
          <mxGeometry x="340" y="570" width="120" height="60" as="geometry" />
        </mxCell>
        <mxCell id="Nweyw8lJaDFySK4mVGA3-7" value="Reservation" style="whiteSpace=wrap;html=1;align=center;" parent="1" vertex="1">
          <mxGeometry x="830" y="440" width="100" height="40" as="geometry" />
        </mxCell>
        <mxCell id="Nweyw8lJaDFySK4mVGA3-9" value="OrderItems" style="shape=associativeEntity;whiteSpace=wrap;html=1;align=center;" parent="1" vertex="1">
          <mxGeometry x="330" y="850" width="140" height="60" as="geometry" />
        </mxCell>
        <mxCell id="Nweyw8lJaDFySK4mVGA3-10" value="Menu" style="whiteSpace=wrap;html=1;align=center;" parent="1" vertex="1">
          <mxGeometry x="140" y="860" width="100" height="40" as="geometry" />
        </mxCell>
        <mxCell id="Nweyw8lJaDFySK4mVGA3-11" value="is given" style="shape=rhombus;perimeter=rhombusPerimeter;whiteSpace=wrap;html=1;align=center;" parent="1" vertex="1">
          <mxGeometry x="340" y="290" width="120" height="60" as="geometry" />
        </mxCell>
        <mxCell id="Nweyw8lJaDFySK4mVGA3-12" value="Ratings &amp;amp; Reviews" style="whiteSpace=wrap;html=1;align=center;" parent="1" vertex="1">
          <mxGeometry x="350" y="160" width="100" height="40" as="geometry" />
        </mxCell>
        <mxCell id="Nweyw8lJaDFySK4mVGA3-13" value="has" style="shape=rhombus;perimeter=rhombusPerimeter;whiteSpace=wrap;html=1;align=center;" parent="1" vertex="1">
          <mxGeometry x="820" y="570" width="120" height="60" as="geometry" />
        </mxCell>
        <mxCell id="Nweyw8lJaDFySK4mVGA3-14" value="Table" style="whiteSpace=wrap;html=1;align=center;" parent="1" vertex="1">
          <mxGeometry x="830" y="720" width="100" height="40" as="geometry" />
        </mxCell>
        <mxCell id="Nweyw8lJaDFySK4mVGA3-15" value="" style="endArrow=none;html=1;rounded=0;entryX=0;entryY=0.5;entryDx=0;entryDy=0;exitX=1;exitY=0.5;exitDx=0;exitDy=0;" parent="1" source="Nweyw8lJaDFySK4mVGA3-2" target="Nweyw8lJaDFySK4mVGA3-4" edge="1">
          <mxGeometry relative="1" as="geometry">
            <mxPoint x="270" y="460" as="sourcePoint" />
            <mxPoint x="430" y="460" as="targetPoint" />
          </mxGeometry>
        </mxCell>
        <mxCell id="Nweyw8lJaDFySK4mVGA3-16" value="1" style="resizable=0;html=1;whiteSpace=wrap;align=right;verticalAlign=bottom;" parent="Nweyw8lJaDFySK4mVGA3-15" connectable="0" vertex="1">
          <mxGeometry x="1" relative="1" as="geometry">
            <mxPoint x="-61" as="offset" />
          </mxGeometry>
        </mxCell>
        <mxCell id="Nweyw8lJaDFySK4mVGA3-17" value="" style="endArrow=none;html=1;rounded=0;entryX=0;entryY=0.5;entryDx=0;entryDy=0;exitX=1;exitY=0.5;exitDx=0;exitDy=0;" parent="1" source="Nweyw8lJaDFySK4mVGA3-4" target="Nweyw8lJaDFySK4mVGA3-7" edge="1">
          <mxGeometry relative="1" as="geometry">
            <mxPoint x="510" y="520" as="sourcePoint" />
            <mxPoint x="670" y="520" as="targetPoint" />
          </mxGeometry>
        </mxCell>
        <mxCell id="Nweyw8lJaDFySK4mVGA3-18" value="N" style="resizable=0;html=1;whiteSpace=wrap;align=right;verticalAlign=bottom;" parent="Nweyw8lJaDFySK4mVGA3-17" connectable="0" vertex="1">
          <mxGeometry x="1" relative="1" as="geometry">
            <mxPoint x="-71" as="offset" />
          </mxGeometry>
        </mxCell>
        <mxCell id="Nweyw8lJaDFySK4mVGA3-19" value="" style="endArrow=none;html=1;rounded=0;entryX=0.5;entryY=1;entryDx=0;entryDy=0;exitX=0.5;exitY=0;exitDx=0;exitDy=0;" parent="1" source="Nweyw8lJaDFySK4mVGA3-2" target="Nweyw8lJaDFySK4mVGA3-11" edge="1">
          <mxGeometry relative="1" as="geometry">
            <mxPoint x="510" y="420" as="sourcePoint" />
            <mxPoint x="670" y="420" as="targetPoint" />
          </mxGeometry>
        </mxCell>
        <mxCell id="Nweyw8lJaDFySK4mVGA3-20" value="1" style="resizable=0;html=1;whiteSpace=wrap;align=right;verticalAlign=bottom;" parent="Nweyw8lJaDFySK4mVGA3-19" connectable="0" vertex="1">
          <mxGeometry x="1" relative="1" as="geometry">
            <mxPoint y="51" as="offset" />
          </mxGeometry>
        </mxCell>
        <mxCell id="Nweyw8lJaDFySK4mVGA3-21" value="" style="endArrow=none;html=1;rounded=0;entryX=0.5;entryY=1;entryDx=0;entryDy=0;exitX=0.5;exitY=0;exitDx=0;exitDy=0;" parent="1" source="Nweyw8lJaDFySK4mVGA3-11" target="Nweyw8lJaDFySK4mVGA3-12" edge="1">
          <mxGeometry relative="1" as="geometry">
            <mxPoint x="510" y="420" as="sourcePoint" />
            <mxPoint x="670" y="420" as="targetPoint" />
          </mxGeometry>
        </mxCell>
        <mxCell id="Nweyw8lJaDFySK4mVGA3-22" value="N" style="resizable=0;html=1;whiteSpace=wrap;align=right;verticalAlign=bottom;" parent="Nweyw8lJaDFySK4mVGA3-21" connectable="0" vertex="1">
          <mxGeometry x="1" relative="1" as="geometry">
            <mxPoint y="51" as="offset" />
          </mxGeometry>
        </mxCell>
        <mxCell id="Nweyw8lJaDFySK4mVGA3-23" value="" style="endArrow=none;html=1;rounded=0;entryX=0.5;entryY=0;entryDx=0;entryDy=0;exitX=0.5;exitY=1;exitDx=0;exitDy=0;" parent="1" source="Nweyw8lJaDFySK4mVGA3-2" target="Nweyw8lJaDFySK4mVGA3-6" edge="1">
          <mxGeometry relative="1" as="geometry">
            <mxPoint x="460" y="500" as="sourcePoint" />
            <mxPoint x="510" y="500" as="targetPoint" />
          </mxGeometry>
        </mxCell>
        <mxCell id="Nweyw8lJaDFySK4mVGA3-24" value="1" style="resizable=0;html=1;whiteSpace=wrap;align=right;verticalAlign=bottom;" parent="Nweyw8lJaDFySK4mVGA3-23" connectable="0" vertex="1">
          <mxGeometry x="1" relative="1" as="geometry">
            <mxPoint y="-41" as="offset" />
          </mxGeometry>
        </mxCell>
        <mxCell id="Nweyw8lJaDFySK4mVGA3-27" value="" style="endArrow=none;html=1;rounded=0;entryX=0.5;entryY=0;entryDx=0;entryDy=0;exitX=0.5;exitY=1;exitDx=0;exitDy=0;" parent="1" source="Nweyw8lJaDFySK4mVGA3-6" target="Nweyw8lJaDFySK4mVGA3-5" edge="1">
          <mxGeometry relative="1" as="geometry">
            <mxPoint x="550" y="640" as="sourcePoint" />
            <mxPoint x="470" y="700" as="targetPoint" />
          </mxGeometry>
        </mxCell>
        <mxCell id="Nweyw8lJaDFySK4mVGA3-28" value="N" style="resizable=0;html=1;whiteSpace=wrap;align=right;verticalAlign=bottom;" parent="Nweyw8lJaDFySK4mVGA3-27" connectable="0" vertex="1">
          <mxGeometry x="1" relative="1" as="geometry">
            <mxPoint y="-30" as="offset" />
          </mxGeometry>
        </mxCell>
        <mxCell id="Nweyw8lJaDFySK4mVGA3-29" value="" style="endArrow=none;html=1;rounded=0;entryX=0.5;entryY=1;entryDx=0;entryDy=0;exitX=0.5;exitY=0;exitDx=0;exitDy=0;" parent="1" source="Nweyw8lJaDFySK4mVGA3-9" target="Nweyw8lJaDFySK4mVGA3-5" edge="1">
          <mxGeometry relative="1" as="geometry">
            <mxPoint x="310" y="800" as="sourcePoint" />
            <mxPoint x="470" y="800" as="targetPoint" />
          </mxGeometry>
        </mxCell>
        <mxCell id="Nweyw8lJaDFySK4mVGA3-30" value="1" style="resizable=0;html=1;whiteSpace=wrap;align=right;verticalAlign=bottom;" parent="Nweyw8lJaDFySK4mVGA3-29" connectable="0" vertex="1">
          <mxGeometry x="1" relative="1" as="geometry">
            <mxPoint y="51" as="offset" />
          </mxGeometry>
        </mxCell>
        <mxCell id="Nweyw8lJaDFySK4mVGA3-31" value="" style="endArrow=none;html=1;rounded=0;entryX=0;entryY=0.5;entryDx=0;entryDy=0;exitX=1;exitY=0.5;exitDx=0;exitDy=0;" parent="1" source="Nweyw8lJaDFySK4mVGA3-10" target="Nweyw8lJaDFySK4mVGA3-9" edge="1">
          <mxGeometry relative="1" as="geometry">
            <mxPoint x="310" y="800" as="sourcePoint" />
            <mxPoint x="470" y="800" as="targetPoint" />
          </mxGeometry>
        </mxCell>
        <mxCell id="Nweyw8lJaDFySK4mVGA3-32" value="1" style="resizable=0;html=1;whiteSpace=wrap;align=right;verticalAlign=bottom;" parent="Nweyw8lJaDFySK4mVGA3-31" connectable="0" vertex="1">
          <mxGeometry x="1" relative="1" as="geometry">
            <mxPoint x="-39" as="offset" />
          </mxGeometry>
        </mxCell>
        <mxCell id="Nweyw8lJaDFySK4mVGA3-33" value="" style="endArrow=none;html=1;rounded=0;entryX=0.5;entryY=1;entryDx=0;entryDy=0;exitX=0.5;exitY=0;exitDx=0;exitDy=0;" parent="1" source="Nweyw8lJaDFySK4mVGA3-13" target="Nweyw8lJaDFySK4mVGA3-7" edge="1">
          <mxGeometry relative="1" as="geometry">
            <mxPoint x="600" y="630" as="sourcePoint" />
            <mxPoint x="760" y="630" as="targetPoint" />
          </mxGeometry>
        </mxCell>
        <mxCell id="Nweyw8lJaDFySK4mVGA3-34" value="1" style="resizable=0;html=1;whiteSpace=wrap;align=right;verticalAlign=bottom;" parent="Nweyw8lJaDFySK4mVGA3-33" connectable="0" vertex="1">
          <mxGeometry x="1" relative="1" as="geometry">
            <mxPoint y="39" as="offset" />
          </mxGeometry>
        </mxCell>
        <mxCell id="Nweyw8lJaDFySK4mVGA3-35" value="" style="endArrow=none;html=1;rounded=0;exitX=0.5;exitY=1;exitDx=0;exitDy=0;entryX=0.5;entryY=0;entryDx=0;entryDy=0;" parent="1" source="Nweyw8lJaDFySK4mVGA3-13" target="Nweyw8lJaDFySK4mVGA3-14" edge="1">
          <mxGeometry relative="1" as="geometry">
            <mxPoint x="880" y="670" as="sourcePoint" />
            <mxPoint x="760" y="710" as="targetPoint" />
          </mxGeometry>
        </mxCell>
        <mxCell id="Nweyw8lJaDFySK4mVGA3-36" value="1" style="resizable=0;html=1;whiteSpace=wrap;align=right;verticalAlign=bottom;" parent="Nweyw8lJaDFySK4mVGA3-35" connectable="0" vertex="1">
          <mxGeometry x="1" relative="1" as="geometry">
            <mxPoint y="-51" as="offset" />
          </mxGeometry>
        </mxCell>
        <mxCell id="Nweyw8lJaDFySK4mVGA3-38" value="Id" style="ellipse;whiteSpace=wrap;html=1;align=center;fontStyle=4;" parent="1" vertex="1">
          <mxGeometry x="350" y="70" width="100" height="40" as="geometry" />
        </mxCell>
        <mxCell id="Nweyw8lJaDFySK4mVGA3-39" value="Name" style="ellipse;whiteSpace=wrap;html=1;align=center;" parent="1" vertex="1">
          <mxGeometry x="460" y="90" width="100" height="40" as="geometry" />
        </mxCell>
        <mxCell id="Nweyw8lJaDFySK4mVGA3-40" value="Date" style="ellipse;whiteSpace=wrap;html=1;align=center;" parent="1" vertex="1">
          <mxGeometry x="240" y="90" width="100" height="40" as="geometry" />
        </mxCell>
        <mxCell id="Nweyw8lJaDFySK4mVGA3-41" value="Type" style="ellipse;whiteSpace=wrap;html=1;align=center;" parent="1" vertex="1">
          <mxGeometry x="480" y="140" width="100" height="40" as="geometry" />
        </mxCell>
        <mxCell id="Nweyw8lJaDFySK4mVGA3-42" value="Stars" style="ellipse;whiteSpace=wrap;html=1;align=center;" parent="1" vertex="1">
          <mxGeometry x="220" y="140" width="100" height="40" as="geometry" />
        </mxCell>
        <mxCell id="Nweyw8lJaDFySK4mVGA3-43" value="CustomerId" style="ellipse;whiteSpace=wrap;html=1;align=center;fontStyle=4;" parent="1" vertex="1">
          <mxGeometry x="240" y="360" width="100" height="40" as="geometry" />
        </mxCell>
        <mxCell id="Nweyw8lJaDFySK4mVGA3-44" value="CustomerName" style="ellipse;whiteSpace=wrap;html=1;align=center;" parent="1" vertex="1">
          <mxGeometry x="200" y="440" width="100" height="40" as="geometry" />
        </mxCell>
        <mxCell id="Nweyw8lJaDFySK4mVGA3-45" value="Email" style="ellipse;whiteSpace=wrap;html=1;align=center;" parent="1" vertex="1">
          <mxGeometry x="240" y="520" width="100" height="40" as="geometry" />
        </mxCell>
        <mxCell id="Nweyw8lJaDFySK4mVGA3-46" value="Address" style="ellipse;whiteSpace=wrap;html=1;align=center;" parent="1" vertex="1">
          <mxGeometry x="480" y="380" width="100" height="40" as="geometry" />
        </mxCell>
        <mxCell id="Nweyw8lJaDFySK4mVGA3-48" value="Ph.no" style="ellipse;whiteSpace=wrap;html=1;align=center;" parent="1" vertex="1">
          <mxGeometry x="480" y="500" width="100" height="40" as="geometry" />
        </mxCell>
        <mxCell id="Nweyw8lJaDFySK4mVGA3-49" value="MenuId" style="ellipse;whiteSpace=wrap;html=1;align=center;fontStyle=4;" parent="1" vertex="1">
          <mxGeometry x="20" y="790" width="100" height="40" as="geometry" />
        </mxCell>
        <mxCell id="Nweyw8lJaDFySK4mVGA3-50" value="ItemName" style="ellipse;whiteSpace=wrap;html=1;align=center;" parent="1" vertex="1">
          <mxGeometry x="-20" y="860" width="100" height="40" as="geometry" />
        </mxCell>
        <mxCell id="Nweyw8lJaDFySK4mVGA3-51" value="Price" style="ellipse;whiteSpace=wrap;html=1;align=center;" parent="1" vertex="1">
          <mxGeometry x="20" y="930" width="100" height="40" as="geometry" />
        </mxCell>
        <mxCell id="Nweyw8lJaDFySK4mVGA3-52" value="Description" style="ellipse;whiteSpace=wrap;html=1;align=center;" parent="1" vertex="1">
          <mxGeometry x="110" y="980" width="100" height="40" as="geometry" />
        </mxCell>
        <mxCell id="Nweyw8lJaDFySK4mVGA3-53" value="OrderId" style="ellipse;whiteSpace=wrap;html=1;align=center;fontStyle=4;" parent="1" vertex="1">
          <mxGeometry x="540" y="860" width="100" height="40" as="geometry" />
        </mxCell>
        <mxCell id="Nweyw8lJaDFySK4mVGA3-54" value="MenuId" style="ellipse;whiteSpace=wrap;html=1;align=center;fontStyle=4;" parent="1" vertex="1">
          <mxGeometry x="480" y="940" width="100" height="40" as="geometry" />
        </mxCell>
        <mxCell id="Nweyw8lJaDFySK4mVGA3-55" value="Quantity" style="ellipse;whiteSpace=wrap;html=1;align=center;" parent="1" vertex="1">
          <mxGeometry x="350" y="980" width="100" height="40" as="geometry" />
        </mxCell>
        <mxCell id="Nweyw8lJaDFySK4mVGA3-56" value="TableId" style="ellipse;whiteSpace=wrap;html=1;align=center;fontStyle=4;" parent="1" vertex="1">
          <mxGeometry x="990" y="720" width="100" height="40" as="geometry" />
        </mxCell>
        <mxCell id="Nweyw8lJaDFySK4mVGA3-57" value="TableNumber" style="ellipse;whiteSpace=wrap;html=1;align=center;" parent="1" vertex="1">
          <mxGeometry x="830" y="800" width="100" height="40" as="geometry" />
        </mxCell>
        <mxCell id="Nweyw8lJaDFySK4mVGA3-58" value="Capacity" style="ellipse;whiteSpace=wrap;html=1;align=center;" parent="1" vertex="1">
          <mxGeometry x="670" y="720" width="100" height="40" as="geometry" />
        </mxCell>
        <mxCell id="Nweyw8lJaDFySK4mVGA3-60" value="RTable" style="ellipse;whiteSpace=wrap;html=1;align=center;fontStyle=4;" parent="1" vertex="1">
          <mxGeometry x="830" y="300" width="100" height="40" as="geometry" />
        </mxCell>
        <mxCell id="Nweyw8lJaDFySK4mVGA3-62" value="Time" style="ellipse;whiteSpace=wrap;html=1;align=center;" parent="1" vertex="1">
          <mxGeometry x="960" y="360" width="100" height="40" as="geometry" />
        </mxCell>
        <mxCell id="Nweyw8lJaDFySK4mVGA3-63" value="TableId" style="ellipse;whiteSpace=wrap;html=1;align=center;fontStyle=4;" parent="1" vertex="1">
          <mxGeometry x="700" y="360" width="100" height="40" as="geometry" />
        </mxCell>
        <mxCell id="Nweyw8lJaDFySK4mVGA3-64" value="Date" style="ellipse;whiteSpace=wrap;html=1;align=center;" parent="1" vertex="1">
          <mxGeometry x="990" y="480" width="100" height="40" as="geometry" />
        </mxCell>
        <mxCell id="Nweyw8lJaDFySK4mVGA3-65" value="" style="endArrow=none;html=1;rounded=0;entryX=0.5;entryY=1;entryDx=0;entryDy=0;exitX=0.5;exitY=0;exitDx=0;exitDy=0;" parent="1" source="Nweyw8lJaDFySK4mVGA3-7" target="Nweyw8lJaDFySK4mVGA3-60" edge="1">
          <mxGeometry relative="1" as="geometry">
            <mxPoint x="790" y="410" as="sourcePoint" />
            <mxPoint x="950" y="410" as="targetPoint" />
          </mxGeometry>
        </mxCell>
        <mxCell id="Nweyw8lJaDFySK4mVGA3-66" value="" style="endArrow=none;html=1;rounded=0;entryX=0;entryY=0.5;entryDx=0;entryDy=0;exitX=1;exitY=0;exitDx=0;exitDy=0;" parent="1" source="Nweyw8lJaDFySK4mVGA3-7" target="Nweyw8lJaDFySK4mVGA3-62" edge="1">
          <mxGeometry relative="1" as="geometry">
            <mxPoint x="790" y="590" as="sourcePoint" />
            <mxPoint x="950" y="590" as="targetPoint" />
          </mxGeometry>
        </mxCell>
        <mxCell id="Nweyw8lJaDFySK4mVGA3-67" value="" style="endArrow=none;html=1;rounded=0;exitX=1;exitY=0.5;exitDx=0;exitDy=0;entryX=0;entryY=0;entryDx=0;entryDy=0;" parent="1" source="Nweyw8lJaDFySK4mVGA3-63" target="Nweyw8lJaDFySK4mVGA3-7" edge="1">
          <mxGeometry relative="1" as="geometry">
            <mxPoint x="790" y="590" as="sourcePoint" />
            <mxPoint x="950" y="590" as="targetPoint" />
          </mxGeometry>
        </mxCell>
        <mxCell id="Nweyw8lJaDFySK4mVGA3-68" value="" style="endArrow=none;html=1;rounded=0;entryX=0;entryY=0.5;entryDx=0;entryDy=0;exitX=1;exitY=1;exitDx=0;exitDy=0;" parent="1" source="Nweyw8lJaDFySK4mVGA3-7" target="Nweyw8lJaDFySK4mVGA3-64" edge="1">
          <mxGeometry relative="1" as="geometry">
            <mxPoint x="790" y="590" as="sourcePoint" />
            <mxPoint x="950" y="590" as="targetPoint" />
          </mxGeometry>
        </mxCell>
        <mxCell id="Nweyw8lJaDFySK4mVGA3-69" value="" style="endArrow=none;html=1;rounded=0;exitX=1;exitY=0.5;exitDx=0;exitDy=0;entryX=0;entryY=0.5;entryDx=0;entryDy=0;" parent="1" source="Nweyw8lJaDFySK4mVGA3-58" target="Nweyw8lJaDFySK4mVGA3-14" edge="1">
          <mxGeometry relative="1" as="geometry">
            <mxPoint x="790" y="800" as="sourcePoint" />
            <mxPoint x="950" y="800" as="targetPoint" />
          </mxGeometry>
        </mxCell>
        <mxCell id="Nweyw8lJaDFySK4mVGA3-70" value="" style="endArrow=none;html=1;rounded=0;entryX=0.5;entryY=1;entryDx=0;entryDy=0;exitX=0.5;exitY=0;exitDx=0;exitDy=0;" parent="1" source="Nweyw8lJaDFySK4mVGA3-57" target="Nweyw8lJaDFySK4mVGA3-14" edge="1">
          <mxGeometry relative="1" as="geometry">
            <mxPoint x="790" y="910" as="sourcePoint" />
            <mxPoint x="950" y="910" as="targetPoint" />
          </mxGeometry>
        </mxCell>
        <mxCell id="Nweyw8lJaDFySK4mVGA3-71" value="" style="endArrow=none;html=1;rounded=0;entryX=0;entryY=0.5;entryDx=0;entryDy=0;exitX=1;exitY=0.5;exitDx=0;exitDy=0;" parent="1" source="Nweyw8lJaDFySK4mVGA3-14" target="Nweyw8lJaDFySK4mVGA3-56" edge="1">
          <mxGeometry relative="1" as="geometry">
            <mxPoint x="790" y="910" as="sourcePoint" />
            <mxPoint x="950" y="910" as="targetPoint" />
          </mxGeometry>
        </mxCell>
        <mxCell id="Nweyw8lJaDFySK4mVGA3-72" value="" style="endArrow=none;html=1;rounded=0;entryX=0;entryY=0;entryDx=0;entryDy=0;exitX=1;exitY=1;exitDx=0;exitDy=0;" parent="1" source="Nweyw8lJaDFySK4mVGA3-9" target="Nweyw8lJaDFySK4mVGA3-54" edge="1">
          <mxGeometry relative="1" as="geometry">
            <mxPoint x="320" y="910" as="sourcePoint" />
            <mxPoint x="480" y="910" as="targetPoint" />
          </mxGeometry>
        </mxCell>
        <mxCell id="Nweyw8lJaDFySK4mVGA3-73" value="" style="endArrow=none;html=1;rounded=0;entryX=0;entryY=0.5;entryDx=0;entryDy=0;exitX=1;exitY=0.5;exitDx=0;exitDy=0;" parent="1" source="Nweyw8lJaDFySK4mVGA3-9" target="Nweyw8lJaDFySK4mVGA3-53" edge="1">
          <mxGeometry relative="1" as="geometry">
            <mxPoint x="320" y="910" as="sourcePoint" />
            <mxPoint x="480" y="910" as="targetPoint" />
          </mxGeometry>
        </mxCell>
        <mxCell id="Nweyw8lJaDFySK4mVGA3-74" value="" style="endArrow=none;html=1;rounded=0;entryX=0.5;entryY=0;entryDx=0;entryDy=0;exitX=0.5;exitY=1;exitDx=0;exitDy=0;" parent="1" source="Nweyw8lJaDFySK4mVGA3-9" target="Nweyw8lJaDFySK4mVGA3-55" edge="1">
          <mxGeometry relative="1" as="geometry">
            <mxPoint x="320" y="910" as="sourcePoint" />
            <mxPoint x="480" y="910" as="targetPoint" />
          </mxGeometry>
        </mxCell>
        <mxCell id="Nweyw8lJaDFySK4mVGA3-75" value="" style="endArrow=none;html=1;rounded=0;exitX=1;exitY=1;exitDx=0;exitDy=0;entryX=0;entryY=0;entryDx=0;entryDy=0;" parent="1" source="Nweyw8lJaDFySK4mVGA3-49" target="Nweyw8lJaDFySK4mVGA3-10" edge="1">
          <mxGeometry relative="1" as="geometry">
            <mxPoint x="320" y="910" as="sourcePoint" />
            <mxPoint x="480" y="910" as="targetPoint" />
          </mxGeometry>
        </mxCell>
        <mxCell id="Nweyw8lJaDFySK4mVGA3-76" value="" style="endArrow=none;html=1;rounded=0;exitX=1;exitY=0.5;exitDx=0;exitDy=0;entryX=0;entryY=0.5;entryDx=0;entryDy=0;" parent="1" source="Nweyw8lJaDFySK4mVGA3-50" target="Nweyw8lJaDFySK4mVGA3-10" edge="1">
          <mxGeometry relative="1" as="geometry">
            <mxPoint x="320" y="910" as="sourcePoint" />
            <mxPoint x="480" y="910" as="targetPoint" />
          </mxGeometry>
        </mxCell>
        <mxCell id="Nweyw8lJaDFySK4mVGA3-77" value="" style="endArrow=none;html=1;rounded=0;exitX=1;exitY=0;exitDx=0;exitDy=0;entryX=0;entryY=1;entryDx=0;entryDy=0;" parent="1" source="Nweyw8lJaDFySK4mVGA3-51" target="Nweyw8lJaDFySK4mVGA3-10" edge="1">
          <mxGeometry relative="1" as="geometry">
            <mxPoint x="320" y="910" as="sourcePoint" />
            <mxPoint x="480" y="910" as="targetPoint" />
          </mxGeometry>
        </mxCell>
        <mxCell id="Nweyw8lJaDFySK4mVGA3-78" value="" style="endArrow=none;html=1;rounded=0;exitX=0.5;exitY=0;exitDx=0;exitDy=0;entryX=0.5;entryY=1;entryDx=0;entryDy=0;" parent="1" source="Nweyw8lJaDFySK4mVGA3-52" target="Nweyw8lJaDFySK4mVGA3-10" edge="1">
          <mxGeometry relative="1" as="geometry">
            <mxPoint x="320" y="910" as="sourcePoint" />
            <mxPoint x="480" y="910" as="targetPoint" />
          </mxGeometry>
        </mxCell>
        <mxCell id="Nweyw8lJaDFySK4mVGA3-79" value="" style="endArrow=none;html=1;rounded=0;entryX=1;entryY=0.5;entryDx=0;entryDy=0;exitX=0;exitY=0.5;exitDx=0;exitDy=0;" parent="1" source="Nweyw8lJaDFySK4mVGA3-12" target="Nweyw8lJaDFySK4mVGA3-42" edge="1">
          <mxGeometry relative="1" as="geometry">
            <mxPoint x="410" y="370" as="sourcePoint" />
            <mxPoint x="570" y="370" as="targetPoint" />
          </mxGeometry>
        </mxCell>
        <mxCell id="Nweyw8lJaDFySK4mVGA3-80" value="" style="endArrow=none;html=1;rounded=0;entryX=0;entryY=0.5;entryDx=0;entryDy=0;exitX=1;exitY=0.5;exitDx=0;exitDy=0;" parent="1" source="Nweyw8lJaDFySK4mVGA3-12" target="Nweyw8lJaDFySK4mVGA3-41" edge="1">
          <mxGeometry relative="1" as="geometry">
            <mxPoint x="410" y="190" as="sourcePoint" />
            <mxPoint x="570" y="190" as="targetPoint" />
          </mxGeometry>
        </mxCell>
        <mxCell id="Nweyw8lJaDFySK4mVGA3-81" value="" style="endArrow=none;html=1;rounded=0;entryX=0;entryY=0.5;entryDx=0;entryDy=0;exitX=0.75;exitY=0;exitDx=0;exitDy=0;" parent="1" source="Nweyw8lJaDFySK4mVGA3-12" target="Nweyw8lJaDFySK4mVGA3-39" edge="1">
          <mxGeometry relative="1" as="geometry">
            <mxPoint x="410" y="190" as="sourcePoint" />
            <mxPoint x="570" y="190" as="targetPoint" />
          </mxGeometry>
        </mxCell>
        <mxCell id="Nweyw8lJaDFySK4mVGA3-82" value="" style="endArrow=none;html=1;rounded=0;exitX=1;exitY=1;exitDx=0;exitDy=0;entryX=0.25;entryY=0;entryDx=0;entryDy=0;" parent="1" source="Nweyw8lJaDFySK4mVGA3-40" target="Nweyw8lJaDFySK4mVGA3-12" edge="1">
          <mxGeometry relative="1" as="geometry">
            <mxPoint x="410" y="190" as="sourcePoint" />
            <mxPoint x="570" y="190" as="targetPoint" />
          </mxGeometry>
        </mxCell>
        <mxCell id="Nweyw8lJaDFySK4mVGA3-83" value="" style="endArrow=none;html=1;rounded=0;entryX=0.5;entryY=1;entryDx=0;entryDy=0;exitX=0.5;exitY=0;exitDx=0;exitDy=0;" parent="1" source="Nweyw8lJaDFySK4mVGA3-12" target="Nweyw8lJaDFySK4mVGA3-38" edge="1">
          <mxGeometry relative="1" as="geometry">
            <mxPoint x="410" y="190" as="sourcePoint" />
            <mxPoint x="570" y="190" as="targetPoint" />
          </mxGeometry>
        </mxCell>
        <mxCell id="Nweyw8lJaDFySK4mVGA3-84" value="" style="endArrow=none;html=1;rounded=0;entryX=1;entryY=1;entryDx=0;entryDy=0;exitX=0;exitY=0;exitDx=0;exitDy=0;" parent="1" source="Nweyw8lJaDFySK4mVGA3-2" target="Nweyw8lJaDFySK4mVGA3-43" edge="1">
          <mxGeometry relative="1" as="geometry">
            <mxPoint x="410" y="530" as="sourcePoint" />
            <mxPoint x="570" y="530" as="targetPoint" />
          </mxGeometry>
        </mxCell>
        <mxCell id="Nweyw8lJaDFySK4mVGA3-85" value="" style="endArrow=none;html=1;rounded=0;entryX=0;entryY=0.5;entryDx=0;entryDy=0;exitX=1;exitY=0;exitDx=0;exitDy=0;" parent="1" source="Nweyw8lJaDFySK4mVGA3-2" target="Nweyw8lJaDFySK4mVGA3-46" edge="1">
          <mxGeometry relative="1" as="geometry">
            <mxPoint x="410" y="530" as="sourcePoint" />
            <mxPoint x="570" y="530" as="targetPoint" />
          </mxGeometry>
        </mxCell>
        <mxCell id="Nweyw8lJaDFySK4mVGA3-86" value="" style="endArrow=none;html=1;rounded=0;entryX=0;entryY=0.5;entryDx=0;entryDy=0;exitX=1;exitY=1;exitDx=0;exitDy=0;" parent="1" source="Nweyw8lJaDFySK4mVGA3-2" target="Nweyw8lJaDFySK4mVGA3-48" edge="1">
          <mxGeometry relative="1" as="geometry">
            <mxPoint x="410" y="530" as="sourcePoint" />
            <mxPoint x="570" y="530" as="targetPoint" />
          </mxGeometry>
        </mxCell>
        <mxCell id="Nweyw8lJaDFySK4mVGA3-87" value="" style="endArrow=none;html=1;rounded=0;entryX=1;entryY=0;entryDx=0;entryDy=0;exitX=0;exitY=1;exitDx=0;exitDy=0;" parent="1" source="Nweyw8lJaDFySK4mVGA3-2" target="Nweyw8lJaDFySK4mVGA3-45" edge="1">
          <mxGeometry relative="1" as="geometry">
            <mxPoint x="410" y="530" as="sourcePoint" />
            <mxPoint x="570" y="530" as="targetPoint" />
          </mxGeometry>
        </mxCell>
        <mxCell id="Nweyw8lJaDFySK4mVGA3-88" value="" style="endArrow=none;html=1;rounded=0;exitX=1;exitY=0.5;exitDx=0;exitDy=0;entryX=0;entryY=0.5;entryDx=0;entryDy=0;" parent="1" source="Nweyw8lJaDFySK4mVGA3-44" target="Nweyw8lJaDFySK4mVGA3-2" edge="1">
          <mxGeometry relative="1" as="geometry">
            <mxPoint x="410" y="530" as="sourcePoint" />
            <mxPoint x="570" y="530" as="targetPoint" />
          </mxGeometry>
        </mxCell>
        <mxCell id="gXGZ9gw7ptgPbpLWrvP3-2" value="User" style="whiteSpace=wrap;html=1;align=center;" vertex="1" parent="1">
          <mxGeometry x="830" y="142" width="100" height="40" as="geometry" />
        </mxCell>
        <mxCell id="gXGZ9gw7ptgPbpLWrvP3-3" value="UserId" style="ellipse;whiteSpace=wrap;html=1;align=center;fontStyle=4;" vertex="1" parent="1">
          <mxGeometry x="830" y="60" width="100" height="40" as="geometry" />
        </mxCell>
        <mxCell id="gXGZ9gw7ptgPbpLWrvP3-4" value="UserName" style="ellipse;whiteSpace=wrap;html=1;align=center;" vertex="1" parent="1">
          <mxGeometry x="690" y="142" width="100" height="40" as="geometry" />
        </mxCell>
        <mxCell id="gXGZ9gw7ptgPbpLWrvP3-5" value="UserType" style="ellipse;whiteSpace=wrap;html=1;align=center;" vertex="1" parent="1">
          <mxGeometry x="830" y="220" width="100" height="40" as="geometry" />
        </mxCell>
        <mxCell id="gXGZ9gw7ptgPbpLWrvP3-6" value="password" style="ellipse;whiteSpace=wrap;html=1;align=center;" vertex="1" parent="1">
          <mxGeometry x="970" y="142" width="100" height="40" as="geometry" />
        </mxCell>
        <mxCell id="gXGZ9gw7ptgPbpLWrvP3-7" value="" style="endArrow=none;html=1;rounded=0;exitX=1;exitY=0.5;exitDx=0;exitDy=0;entryX=0;entryY=0.5;entryDx=0;entryDy=0;" edge="1" parent="1" source="gXGZ9gw7ptgPbpLWrvP3-4" target="gXGZ9gw7ptgPbpLWrvP3-2">
          <mxGeometry relative="1" as="geometry">
            <mxPoint x="1080" y="240" as="sourcePoint" />
            <mxPoint x="1240" y="240" as="targetPoint" />
          </mxGeometry>
        </mxCell>
        <mxCell id="gXGZ9gw7ptgPbpLWrvP3-8" value="" style="endArrow=none;html=1;rounded=0;exitX=0.5;exitY=0;exitDx=0;exitDy=0;entryX=0.5;entryY=1;entryDx=0;entryDy=0;" edge="1" parent="1" source="gXGZ9gw7ptgPbpLWrvP3-5" target="gXGZ9gw7ptgPbpLWrvP3-2">
          <mxGeometry relative="1" as="geometry">
            <mxPoint x="1080" y="240" as="sourcePoint" />
            <mxPoint x="1240" y="240" as="targetPoint" />
          </mxGeometry>
        </mxCell>
        <mxCell id="gXGZ9gw7ptgPbpLWrvP3-9" value="" style="endArrow=none;html=1;rounded=0;exitX=1;exitY=0.5;exitDx=0;exitDy=0;entryX=0;entryY=0.5;entryDx=0;entryDy=0;" edge="1" parent="1" source="gXGZ9gw7ptgPbpLWrvP3-2" target="gXGZ9gw7ptgPbpLWrvP3-6">
          <mxGeometry relative="1" as="geometry">
            <mxPoint x="1080" y="240" as="sourcePoint" />
            <mxPoint x="1240" y="240" as="targetPoint" />
          </mxGeometry>
        </mxCell>
        <mxCell id="gXGZ9gw7ptgPbpLWrvP3-10" value="" style="endArrow=none;html=1;rounded=0;exitX=0.5;exitY=0;exitDx=0;exitDy=0;entryX=0.5;entryY=1;entryDx=0;entryDy=0;" edge="1" parent="1" source="gXGZ9gw7ptgPbpLWrvP3-2" target="gXGZ9gw7ptgPbpLWrvP3-3">
          <mxGeometry relative="1" as="geometry">
            <mxPoint x="1080" y="240" as="sourcePoint" />
            <mxPoint x="1240" y="240" as="targetPoint" />
          </mxGeometry>
        </mxCell>
      </root>
    </mxGraphModel>
  </diagram>
</mxfile>
